<?xml version="1.0" encoding="UTF-8" standalone="no"?>
<svg
   id="Discord-Logo"
   viewBox="0 0 300.00001 45.332699"
   version="1.1"
   sodipodi:docname="discord-logo.svg"
   width="300"
   height="45.332699"
   inkscape:version="1.4.3 (0d15f75042, 2025-12-25)"
   xmlns:inkscape="http://www.inkscape.org/namespaces/inkscape"
   xmlns:sodipodi="http://sodipodi.sourceforge.net/DTD/sodipodi-0.dtd"
   xmlns="http://www.w3.org/2000/svg"
   xmlns:svg="http://www.w3.org/2000/svg">
  <sodipodi:namedview
     id="namedview1"
     pagecolor="#ffffff"
     bordercolor="#000000"
     borderopacity="0.25"
     inkscape:showpageshadow="2"
     inkscape:pageopacity="0.0"
     inkscape:pagecheckerboard="0"
     inkscape:deskcolor="#d1d1d1"
     inkscape:zoom="13.84784"
     inkscape:cx="262.09864"
     inkscape:cy="36.323354"
     inkscape:window-width="3440"
     inkscape:window-height="1371"
     inkscape:window-x="0"
     inkscape:window-y="0"
     inkscape:window-maximized="1"
     inkscape:current-layer="Discord-Logo" />
  <defs
     id="defs1">
    <style
       id="style1">.cls-1{fill:#5865f2;}</style>
  </defs>
  <path
     id="Discord-Logo-Blurple"
     class="cls-1"
     d="m 38.308917,0 c -0.584241,1.0372914 -1.108859,2.110366 -1.585748,3.2072805 -4.530745,-0.6795998 -9.144951,-0.6795998 -13.687592,0 C 22.570583,2.110366 22.034022,1.0372914 21.449828,0 17.193314,0.72732662 13.0441,2.0030633 9.1095408,3.8034173 1.3118932,15.356803 -0.79847281,26.612073 0.25076204,37.71236 4.8172421,41.086566 9.9322266,43.661926 15.381016,45.307298 c 1.228056,-1.645372 2.313074,-3.398046 3.243064,-5.22224 -1.764619,-0.65576 -3.469613,-1.478446 -5.103042,-2.432274 0.429212,-0.310012 0.846526,-0.63192 1.251898,-0.941933 9.574161,4.506905 20.662552,4.506905 30.24861,0 0.405372,0.333853 0.822686,0.655761 1.251897,0.941933 -1.633428,0.965724 -3.338424,1.776514 -5.114938,2.444217 0.92999,1.824194 2.01496,3.576869 3.243064,5.22224 C 49.850217,43.67387 54.965154,41.110405 59.532012,37.736247 60.771682,24.859398 57.409561,13.699487 50.648969,3.8153609 46.726541,2.0150068 42.577328,0.73922291 38.320813,0.02383981 Z M 19.959439,30.880531 c -2.944948,0 -5.389165,-2.670767 -5.389165,-5.973406 0,-3.30264 2.348811,-5.98535 5.377269,-5.98535 3.028459,0 5.436845,2.694607 5.389166,5.98535 -0.04768,3.290743 -2.372651,5.973406 -5.37727,5.973406 z m 19.863707,0 c -2.956939,0 -5.377269,-2.670767 -5.377269,-5.973406 0,-3.30264 2.348811,-5.98535 5.377269,-5.98535 3.028458,0 5.424949,2.694607 5.377222,5.98535 -0.04767,3.290743 -2.372651,5.973406 -5.377222,5.973406 z M 79.70507,6.2854011 h 17.795356 c 4.289134,0 7.917744,0.6692142 10.885774,2.0076896 2.73265,1.1488427 5.05305,3.0987973 6.65532,5.5928193 1.49993,2.463761 2.26856,5.303201 2.21626,8.187157 0.033,2.897221 -0.76562,5.743081 -2.30104,8.200186 -1.71274,2.59566 -4.16196,4.620391 -7.0334,5.814459 -3.14625,1.43407 -7.04644,2.148935 -11.700587,2.144544 H 79.705023 V 6.2854011 Z M 96.040248,30.103778 c 2.889857,0 5.110452,-0.721378 6.661832,-2.164136 1.59146,-1.543308 2.33701,-3.64546 2.3271,-5.912225 0.008,-2.098563 -0.65156,-4.056025 -2.07284,-5.540654 -1.39059,-1.381907 -3.483018,-2.075056 -6.277279,-2.079399 h -5.56676 v 15.696414 z m 47.864912,8.076361 c -2.34768,-0.588253 -4.59349,-1.526598 -6.66184,-2.783356 V 27.82238 c 1.80579,1.313408 3.83902,2.281398 5.99697,2.855065 2.36071,0.720292 4.81304,1.095686 7.2811,1.114664 0.85181,0.04546 1.70287,-0.101591 2.49005,-0.430202 0.56059,-0.286834 0.84087,-0.651842 0.84087,-1.029928 0.0122,-0.426991 -0.15305,-0.839917 -0.45632,-1.140723 -0.52065,-0.400461 -1.13175,-0.666806 -1.77953,-0.775714 L 146.141,27.183567 c -3.13755,-0.730065 -5.36466,-1.740448 -6.68138,-3.031055 -1.33645,-1.347964 -2.04587,-3.194865 -1.95552,-5.090909 -0.022,-1.699518 0.59708,-3.344985 1.73389,-4.608542 1.34782,-1.425762 3.04753,-2.47122 4.92794,-3.031055 2.41986,-0.760607 4.94707,-1.123822 7.48315,-1.075529 2.36746,-0.02224 4.72835,0.253693 7.02684,0.821317 1.85658,0.43988 3.63947,1.146907 5.29296,2.098942 v 7.170259 c -1.55063,-0.899634 -3.21757,-1.581735 -4.95401,-2.027234 -1.88136,-0.504459 -3.82102,-0.758672 -5.7688,-0.756122 -2.85941,0 -4.28914,0.486709 -4.28914,1.460128 -0.0101,0.443186 0.24713,0.849029 0.65184,1.029928 0.78124,0.332152 1.59982,0.568568 2.4379,0.704005 l 4.56288,0.821318 c 2.96374,0.521454 5.17348,1.43407 6.62926,2.737754 1.4558,1.303683 2.18585,3.211435 2.1902,5.723207 0.0472,2.687666 -1.33483,5.198636 -3.63078,6.596639 -2.4031,1.612233 -5.83401,2.416177 -10.29261,2.411834 -2.56389,0.0039 -5.11782,-0.318037 -7.60051,-0.958218 z m 32.30534,-0.958218 c -2.43944,-1.120897 -4.49547,-2.934374 -5.91222,-5.214734 -1.32153,-2.236269 -1.99834,-4.794682 -1.95552,-7.391899 -0.0394,-2.59566 0.67379,-5.147181 2.05328,-7.346297 1.47038,-2.244577 3.56357,-4.011508 6.02303,-5.084394 2.99041,-1.303023 6.22998,-1.934895 9.49084,-1.851244 4.56289,0 8.35012,0.95822 11.36163,2.874609 v 8.363147 c -1.14568,-0.770191 -2.39729,-1.369632 -3.71552,-1.779536 -1.47571,-0.465844 -3.01548,-0.696829 -4.56289,-0.684415 -2.82901,0 -5.04309,0.517113 -6.64229,1.551382 -2.24765,1.254447 -3.05281,4.093461 -1.79838,6.341106 0.40873,0.732331 1.00751,1.340836 1.73318,1.761314 1.55139,1.047299 3.80243,1.570925 6.7531,1.570925 1.52305,0.0036 3.03836,-0.215974 4.49769,-0.651841 1.33111,-0.381674 2.60978,-0.926873 3.80676,-1.623091 v 8.082876 c -3.52706,2.056408 -7.55358,3.098561 -11.63542,3.01151 -3.27144,0.08927 -6.52002,-0.570692 -9.49731,-1.929466 z m 32.42276,0 c -2.46683,-1.12642 -4.55926,-2.936073 -6.02954,-5.214734 -1.38558,-2.230982 -2.10475,-4.811488 -2.07283,-7.437549 -0.0443,-2.594952 0.67667,-5.145481 2.07283,-7.333267 1.47808,-2.220737 3.56144,-3.971571 6.00348,-5.045259 5.99852,-2.4336905 12.7094,-2.4336905 18.70793,0 2.43241,1.065521 4.50728,2.807763 5.97742,5.019201 1.38681,2.195858 2.10054,4.749598 2.05328,7.346295 0.0324,2.623419 -0.67959,5.202272 -2.05328,7.43755 -1.45424,2.280217 -3.53689,4.091241 -5.99697,5.214733 -5.95835,2.55525 -12.70393,2.55525 -18.66227,0 v 0.01303 z m 13.86472,-8.095906 c 1.13944,-1.17627 1.74313,-2.770516 1.66873,-4.406446 0.0797,-1.621343 -0.52589,-3.201473 -1.66873,-4.35433 -1.23878,-1.136049 -2.885,-1.721611 -4.5629,-1.623089 -1.67644,-0.08818 -3.31874,0.496057 -4.56289,1.623089 -1.13837,1.155263 -1.74116,2.734356 -1.66218,4.35433 -0.0738,1.634656 0.52712,3.227863 1.66218,4.406446 1.23245,1.150259 2.87942,1.75022 4.56289,1.662178 1.68498,0.09805 3.33578,-0.503327 4.5629,-1.662178 z m 40.27086,-17.104378 v 9.868926 c -1.36218,-0.812867 -2.93244,-1.20941 -4.51729,-1.140723 -2.43138,0 -4.30868,0.743093 -5.61236,2.216252 -1.30368,1.473158 -1.95553,3.76112 -1.95553,6.863929 v 8.395768 H 239.50454 V 11.532755 h 10.95097 v 8.473991 c 0.60837,-3.102763 1.59051,-5.390771 2.94632,-6.86393 1.3303,-1.466078 3.26242,-2.236363 5.21473,-2.216253 1.44663,-0.0031 2.90147,0.340225 4.15228,1.095074 z M 299.91093,5.3728321 V 38.225742 h -11.17912 v -5.996964 c -0.84308,2.134962 -2.35764,3.937818 -4.3152,5.136512 -2.16101,1.231219 -4.61897,1.84454 -7.10511,1.77302 -2.3395,0.05448 -4.64239,-0.587639 -6.61623,-1.844728 -1.91148,-1.241748 -3.43416,-2.997113 -4.39342,-5.064804 -1.04664,-2.28239 -1.5679,-4.77051 -1.52532,-7.281102 -0.0736,-2.603024 0.48086,-5.185465 1.61658,-7.528801 1.04394,-2.146385 2.67313,-3.954057 4.69979,-5.214734 2.08332,-1.26214 4.48056,-1.910584 6.91605,-1.870788 5.31906,0 8.89329,2.311895 10.72281,6.935638 V 5.3728321 h 11.17912 z M 287.08913,28.96957 c 1.152,-1.133878 1.7742,-2.699894 1.71434,-4.315195 0.049,-1.567526 -0.57499,-3.081095 -1.71434,-4.158748 -2.6364,-2.146433 -6.41773,-2.146433 -9.05412,0 -1.13615,1.102249 -1.74999,2.635645 -1.68829,4.217428 -0.0579,1.596464 0.56253,3.142841 1.70783,4.256562 1.20983,1.124625 2.82168,1.714389 4.47164,1.636119 1.67945,0.09277 3.32506,-0.497285 4.56289,-1.636119 z M 126.68342,4.3624962 c 3.07802,0 5.57327,2.2413198 5.57327,5.0061712 0,2.7648516 -2.49525,5.0061706 -5.57327,5.0061706 -3.07803,0 -5.57328,-2.241319 -5.57328,-5.0061706 0,-2.7648514 2.49525,-5.0061712 5.57328,-5.0061712 z m -5.57979,13.4605708 c 3.56657,1.49898 7.58649,1.49898 11.15306,0 v 20.546091 h -11.15306 z"
     style="stroke-width:0.472075" />
</svg>
